<?xml version="1.0" standalone="no"?>
<!DOCTYPE svg PUBLIC "-//W3C//DTD SVG 20010904//EN"
 "http://www.w3.org/TR/2001/REC-SVG-20010904/DTD/svg10.dtd">
<svg version="1.0" xmlns="http://www.w3.org/2000/svg"
 width="260.000000pt" height="260.000000pt" viewBox="0 0 260.000000 260.000000"
 preserveAspectRatio="xMidYMid meet">
<metadata>
Created by potrace 1.14, written by Peter Selinger 2001-2017
</metadata>
<g transform="translate(0.000000,260.000000) scale(0.100000,-0.100000)"
fill="#000000" stroke="none">
<path d="M1044 1938 c-3 -5 -10 -6 -15 -3 -5 3 -6 0 -3 -8 3 -8 -2 -17 -11
-21 -9 -3 -14 -10 -11 -15 3 -5 -1 -11 -9 -15 -9 -3 -13 -14 -11 -28 3 -13 5
-27 5 -31 1 -5 6 -5 13 -1 8 5 9 2 5 -9 -4 -11 -1 -17 8 -17 8 0 15 -5 15 -11
0 -5 -5 -7 -12 -3 -6 4 -8 3 -5 -4 4 -5 16 -8 26 -5 10 3 22 -1 26 -8 6 -8 4
-10 -5 -4 -9 6 -11 4 -5 -4 5 -9 10 -10 18 -2 7 7 14 7 24 -1 11 -8 12 -7 7 6
-5 12 -2 15 12 9 14 -5 16 -3 11 12 -6 14 -5 16 7 6 11 -9 15 -8 20 4 4 11 2
14 -7 10 -6 -4 -4 0 5 8 14 11 15 16 5 27 -9 9 -9 11 0 6 6 -3 14 -2 18 4 3 5
1 10 -6 10 -8 0 -8 4 1 15 11 13 10 14 -6 8 -17 -6 -17 -5 -6 10 12 14 10 18
-20 32 -18 8 -25 13 -15 10 10 -3 15 -1 12 5 -3 6 -18 7 -32 4 -15 -4 -24 -3
-20 2 3 6 -3 10 -14 10 -11 0 -23 -4 -25 -8z m-34 -72 c0 -3 -4 -8 -10 -11 -5
-3 -10 -1 -10 4 0 6 5 11 10 11 6 0 10 -2 10 -4z"/>
<path d="M1690 1940 c0 -6 -5 -8 -12 -4 -6 4 -8 3 -4 -4 3 -6 2 -13 -3 -16 -5
-4 -13 -1 -17 5 -5 8 -13 4 -26 -12 -11 -13 -16 -17 -12 -9 7 13 5 13 -9 2 -9
-8 -22 -10 -28 -6 -7 4 -9 3 -6 -3 4 -6 -3 -19 -16 -29 -21 -19 -21 -19 -8 1
8 11 0 5 -16 -12 -17 -18 -33 -30 -36 -27 -3 3 -8 0 -13 -7 -4 -8 -3 -10 4 -5
18 11 14 -10 -5 -25 -15 -12 -16 -12 -8 1 8 13 6 13 -8 2 -9 -8 -16 -17 -15
-20 2 -21 -3 -42 -10 -38 -7 4 -12 -12 -15 -56 -1 -9 -6 -14 -11 -11 -5 4 -7
-1 -3 -10 3 -10 2 -17 -4 -17 -6 0 -7 -4 -4 -10 3 -5 0 -10 -7 -10 -8 0 -9 -3
-3 -8 13 -9 19 -35 6 -28 -5 3 -8 -17 -7 -44 1 -28 -2 -50 -6 -50 -5 0 -8 -5
-8 -11 0 -5 4 -7 10 -4 6 4 7 -2 1 -17 -5 -13 -5 -33 0 -45 7 -18 5 -23 -8
-23 -14 0 -14 -2 3 -15 10 -8 13 -15 7 -15 -9 0 -10 -7 -3 -25 8 -20 6 -25 -7
-25 -14 0 -14 -2 3 -15 10 -8 14 -15 9 -15 -7 0 -9 -22 -5 -62 4 -35 3 -64 -1
-66 -3 -2 -3 -19 1 -39 5 -19 6 -42 3 -49 -3 -8 1 -14 8 -14 11 0 11 -3 -1
-10 -13 -9 -13 -10 0 -10 13 0 13 -1 0 -10 -13 -8 -12 -10 3 -10 9 0 17 -5 17
-11 0 -5 -4 -7 -10 -4 -6 3 -7 -1 -4 -9 3 -9 9 -16 13 -16 4 0 8 -12 9 -27 1
-16 7 -29 12 -31 6 -2 10 -10 10 -19 0 -8 10 -24 23 -35 12 -11 15 -16 7 -12
-13 7 -13 5 -1 -9 7 -9 16 -15 20 -13 3 2 11 -7 18 -20 8 -17 8 -24 0 -24 -6
0 -7 -3 -4 -6 4 -4 13 -2 20 4 11 9 16 6 25 -13 10 -22 23 -30 37 -22 2 1 11
-7 20 -18 9 -11 13 -14 10 -7 -6 11 -3 11 16 0 13 -7 27 -17 31 -23 5 -6 8 -6
8 1 0 6 7 11 15 11 13 0 12 -4 -2 -20 -18 -20 -18 -20 7 -4 14 9 34 14 45 12
11 -2 26 -4 33 -4 7 -1 11 -5 8 -9 -2 -4 22 -7 54 -7 39 0 55 3 50 10 -6 7 -2
11 11 12 11 1 17 -2 15 -6 -3 -4 1 -8 9 -8 8 0 12 4 9 8 -7 12 19 17 37 8 11
-6 21 -4 29 6 7 8 16 13 20 10 5 -3 12 0 16 6 4 8 3 9 -4 5 -7 -4 -12 -2 -12
4 0 6 10 10 23 8 14 -2 21 2 19 10 -1 8 2 11 8 7 12 -7 53 19 43 28 -3 4 0 7
8 7 8 0 19 10 24 23 6 12 17 21 24 19 8 -2 11 3 8 12 -3 8 -1 17 6 20 8 3 8 5
-2 5 -11 1 -11 4 0 17 10 13 10 17 -2 25 -10 6 -10 9 -1 9 6 0 12 5 12 11 0 5
-4 8 -9 5 -10 -7 -8 29 5 58 6 15 4 17 -7 11 -12 -8 -12 -6 0 8 11 14 11 17 0
17 -9 0 -10 3 -4 8 13 9 16 74 3 66 -6 -4 -5 2 1 14 14 27 14 35 -1 26 -10 -6
-10 -4 0 7 14 15 16 33 3 25 -10 -7 -8 41 3 51 3 3 0 13 -7 21 -9 13 -9 14 1
8 7 -4 12 -1 12 9 0 10 -5 13 -12 9 -10 -6 -10 -5 0 8 10 13 9 18 -5 29 -12
10 -15 11 -9 1 7 -12 -15 -11 -61 4 -7 2 -13 -2 -13 -8 0 -7 -5 -6 -15 2 -12
10 -15 10 -15 0 0 -10 -3 -10 -15 0 -9 8 -15 8 -15 2 0 -7 -10 -8 -30 -2 -20
6 -30 5 -30 -2 0 -6 -6 -6 -15 2 -12 10 -15 10 -15 0 0 -10 -3 -10 -15 0 -9 8
-15 8 -15 2 0 -7 -10 -8 -30 -2 -21 6 -30 5 -30 -3 0 -7 -4 -6 -10 3 -7 11
-10 11 -10 2 0 -7 -4 -10 -10 -7 -5 3 -10 1 -10 -5 0 -6 -4 -9 -8 -6 -5 3 -9
-1 -9 -9 0 -8 5 -15 11 -15 6 0 4 -5 -4 -10 -12 -8 -12 -10 -1 -10 10 0 11 -3
2 -13 -8 -10 -7 -17 2 -27 9 -10 9 -11 0 -6 -7 4 -13 2 -13 -3 0 -6 7 -11 16
-11 10 0 14 -5 10 -15 -4 -13 -2 -13 14 -5 25 13 33 13 23 -2 -4 -7 5 -5 20 5
14 9 30 17 34 17 4 0 2 -4 -5 -9 -10 -6 -7 -10 12 -13 15 -3 29 -1 33 5 4 6 1
7 -7 2 -9 -5 -11 -4 -6 4 4 6 13 8 19 4 7 -4 23 -8 37 -9 17 0 25 -5 24 -17
-1 -9 2 -17 7 -17 6 0 5 -9 -1 -20 -8 -14 -8 -20 0 -20 6 0 8 -5 3 -12 -11
-18 -13 -39 -3 -33 4 3 10 -4 13 -15 3 -11 0 -23 -5 -27 -7 -3 -8 -1 -4 5 4 7
2 12 -3 12 -14 0 -14 -17 -1 -25 6 -3 10 -14 10 -23 0 -13 -2 -14 -8 -4 -6 8
-9 2 -9 -17 0 -24 3 -28 13 -20 9 8 11 5 7 -10 -3 -12 -10 -18 -17 -14 -6 4
-4 -2 4 -12 8 -10 10 -16 4 -13 -5 4 -18 -4 -28 -18 -11 -13 -23 -24 -29 -24
-5 0 -16 -8 -24 -17 -8 -10 -12 -12 -8 -5 3 6 1 12 -4 12 -6 0 -11 -5 -11 -10
0 -7 -7 -7 -21 1 -17 8 -20 8 -14 -1 5 -9 1 -10 -14 -5 -17 5 -20 3 -15 -12 5
-14 4 -15 -4 -4 -6 8 -22 15 -37 17 -25 3 -26 2 -9 -11 18 -13 18 -14 -3 -8
-13 3 -23 8 -23 12 0 4 -12 7 -27 8 -49 1 -54 3 -48 13 6 9 -8 14 -27 11 -5 0
-8 4 -8 10 0 5 -4 7 -10 4 -5 -3 -10 0 -10 8 0 8 -13 25 -29 38 -21 16 -26 26
-18 31 8 5 6 8 -7 8 -15 0 -16 3 -6 15 11 13 10 14 -4 9 -12 -5 -15 -2 -9 12
5 13 3 15 -8 10 -8 -4 -5 0 6 10 16 13 17 16 3 11 -10 -3 -20 -2 -23 3 -4 6
-1 10 6 10 8 0 8 4 1 13 -6 7 -8 24 -5 37 4 14 2 21 -3 17 -10 -5 -10 12 -1
76 3 15 0 30 -6 34 -6 4 -7 1 -2 -7 5 -8 4 -11 -3 -6 -6 4 -9 13 -6 21 4 8 9
13 13 10 4 -2 8 2 8 10 0 8 -7 15 -16 15 -14 1 -14 2 1 13 15 12 15 14 0 25
-15 10 -15 11 2 5 18 -6 18 -5 0 23 -13 21 -14 26 -3 17 12 -10 15 -8 15 7 0
10 -4 17 -7 14 -4 -2 -10 0 -13 5 -3 5 2 12 12 16 16 6 16 7 0 16 -10 5 -15
16 -12 24 4 8 11 12 18 8 6 -3 2 4 -8 16 -20 22 -20 22 0 15 16 -7 17 -6 6 8
-10 13 -10 17 0 21 10 4 10 6 1 6 -7 1 -13 6 -13 12 0 5 3 8 8 5 4 -2 7 17 6
42 -1 26 3 53 8 60 7 8 6 12 -3 12 -10 0 -10 3 -3 8 6 4 14 17 18 30 4 12 12
19 18 16 6 -4 6 2 -1 15 -9 16 -9 20 2 15 8 -3 20 3 28 13 13 17 13 17 -5 3
-18 -14 -18 -14 -6 7 8 12 18 19 22 17 4 -3 8 0 8 6 0 6 5 8 12 4 8 -5 9 -2 4
11 -6 16 -4 16 11 4 9 -8 14 -9 10 -3 -4 7 0 14 7 17 8 3 17 1 20 -6 2 -7 5
-4 5 6 1 10 6 15 11 12 6 -4 18 -1 27 7 12 9 15 9 9 1 -4 -7 -2 -13 3 -13 6 0
11 5 11 12 0 9 3 9 12 0 7 -7 17 -8 30 -1 14 8 18 6 18 -8 0 -15 2 -15 16 3 8
10 13 14 10 8 -3 -7 1 -15 10 -18 10 -4 13 -2 9 7 -4 6 1 3 9 -7 10 -13 16
-15 16 -6 0 8 7 5 19 -9 14 -16 21 -18 24 -9 3 7 6 3 6 -10 1 -13 5 -20 11
-17 6 3 10 1 10 -5 0 -6 7 -18 15 -26 8 -8 11 -22 8 -31 -4 -10 -2 -14 5 -9 6
3 13 2 17 -4 3 -5 1 -10 -6 -10 -7 0 -9 -3 -6 -7 4 -3 1 -13 -5 -22 -7 -9 -2
-7 11 4 l24 20 -11 -20 c-5 -11 -12 -23 -14 -26 -1 -4 6 -16 16 -28 15 -16 21
-18 28 -9 6 11 8 11 8 0 0 -10 5 -10 20 -2 11 6 20 7 20 2 0 -4 9 -8 20 -8 11
0 20 5 20 11 0 5 5 3 10 -5 7 -12 10 -12 10 -1 0 7 6 11 13 8 8 -3 14 1 14 9
0 8 -4 14 -9 14 -4 0 -8 7 -8 16 0 8 5 12 10 9 6 -4 1 10 -10 30 -11 20 -17
34 -12 31 5 -3 9 1 9 9 0 8 -5 11 -10 8 -6 -4 -8 3 -4 16 4 18 2 21 -10 17
-14 -6 -14 -4 -2 11 9 11 10 14 2 9 -11 -6 -18 5 -10 19 1 2 -7 11 -18 20 -11
9 -13 13 -5 9 12 -7 13 -5 3 8 -7 8 -9 19 -5 24 4 4 -1 2 -10 -5 -15 -11 -18
-10 -23 12 -4 14 -14 28 -22 32 -13 5 -14 3 -3 -12 7 -10 -1 -3 -18 16 -21 23
-36 32 -47 27 -13 -5 -16 -2 -11 9 4 13 2 14 -14 5 -13 -7 -21 -7 -26 2 -5 7
-3 8 6 3 9 -5 11 -4 6 3 -4 7 -14 12 -22 12 -10 0 -12 -5 -8 -12 5 -8 0 -7
-11 2 -10 8 -20 14 -22 13 -9 -7 -23 -2 -18 7 4 6 -4 6 -21 0 -21 -8 -29 -8
-36 2 -6 10 -8 10 -8 1 0 -7 -5 -13 -11 -13 -5 0 -8 4 -5 9 7 10 -20 9 -30 -1
-3 -4 -13 -4 -22 -1 -10 4 -13 2 -8 -5 10 -17 0 -15 -18 4 -9 9 -16 11 -16 4z
m310 -1226 c0 -8 -19 -13 -24 -6 -3 5 1 9 9 9 8 0 15 -2 15 -3z m-133 -17 c0
-8 -6 -14 -14 -14 -9 0 -10 4 -2 14 6 7 12 13 14 13 1 0 2 -6 2 -13z m-43 -5
c3 -5 -1 -9 -9 -9 -8 0 -12 4 -9 9 3 4 7 8 9 8 2 0 6 -4 9 -8z"/>
<path d="M2485 1940 c-3 -5 -12 -7 -20 -3 -11 4 -13 1 -9 -11 5 -12 2 -15 -12
-9 -14 5 -16 3 -11 -12 6 -15 5 -16 -7 -6 -13 11 -15 9 -11 -8 2 -12 1 -21 -3
-21 -7 0 -8 -45 -2 -60 1 -3 2 -9 1 -13 -1 -5 2 -6 6 -4 11 6 34 -19 25 -27
-3 -4 1 -4 11 0 11 4 17 1 17 -8 0 -8 7 -15 15 -15 8 0 12 4 9 8 -2 4 0 10 6
14 5 3 10 0 10 -7 0 -9 3 -9 10 2 9 13 10 13 10 0 1 -8 7 -3 16 13 8 15 17 27
20 27 3 0 2 -5 -2 -12 -4 -7 -3 -8 4 -4 6 4 8 14 5 23 -4 10 -2 14 5 9 6 -3
14 -2 17 4 4 6 1 9 -7 8 -9 -2 -13 7 -12 30 1 20 -4 32 -13 32 -7 0 -12 6 -10
13 1 6 -4 11 -12 9 -12 -3 -12 -1 -1 15 8 10 11 15 6 11 -4 -4 -19 -3 -32 2
-14 6 -26 6 -29 0z"/>
<path d="M74 1934 c3 -7 -1 -17 -9 -24 -13 -11 -15 -10 -9 6 5 18 5 18 -9 2
-8 -10 -17 -15 -21 -11 -4 4 -5 1 -2 -7 11 -34 14 -80 4 -80 -6 0 -5 -6 2 -15
9 -11 9 -15 1 -15 -7 0 -9 -5 -5 -12 9 -14 12 -78 5 -78 -4 0 -6 -11 -6 -24 0
-13 4 -22 8 -19 4 2 5 -6 3 -19 -13 -53 -14 -78 -5 -73 5 4 9 1 9 -4 0 -6 -5
-11 -11 -11 -5 0 -7 -5 -3 -12 9 -14 12 -78 5 -78 -4 0 -6 -11 -6 -24 0 -13 4
-22 8 -19 4 2 5 -6 3 -19 -13 -53 -14 -78 -5 -73 5 4 9 1 9 -4 0 -6 -5 -11
-11 -11 -5 0 -7 -5 -3 -12 9 -14 12 -78 5 -78 -4 0 -6 -11 -6 -24 0 -13 4 -22
8 -19 4 2 5 -6 3 -19 -13 -53 -14 -78 -5 -73 5 4 9 1 9 -4 0 -6 -5 -11 -11
-11 -5 0 -7 -5 -3 -12 9 -14 12 -78 5 -78 -4 0 -6 -11 -6 -24 0 -13 4 -22 8
-19 4 2 5 -6 3 -19 -13 -53 -14 -78 -5 -73 5 4 9 1 9 -4 0 -6 -5 -11 -11 -11
-5 0 -7 -5 -3 -12 12 -18 11 -58 -1 -59 -5 0 -1 -4 10 -9 11 -5 14 -9 8 -9 -7
-1 -13 -10 -13 -20 0 -15 6 -19 25 -16 14 1 25 -2 25 -8 0 -6 4 -6 13 1 6 5
21 6 32 2 11 -4 28 -3 39 2 13 7 21 6 27 -3 5 -9 11 -10 21 -2 7 6 22 7 33 3
11 -4 29 -3 40 3 13 7 20 7 23 -2 2 -6 8 -11 13 -11 6 0 7 5 3 11 -4 7 1 7 16
-1 12 -7 20 -8 16 -2 -8 14 47 12 56 -2 5 -7 8 -5 8 6 0 9 5 20 12 24 7 4 8 3
4 -4 -4 -7 -1 -12 8 -12 8 0 18 5 21 10 3 6 16 10 29 10 12 0 28 6 35 12 11
11 13 10 7 -2 -4 -8 0 -6 8 4 9 11 16 17 16 13 0 -4 9 2 20 13 12 12 26 18 32
14 8 -5 9 -1 5 10 -5 14 -3 17 8 12 9 -3 15 0 15 10 0 8 5 12 10 9 6 -3 10 -1
10 4 0 6 9 20 20 31 11 11 20 28 20 39 0 10 10 26 23 35 12 9 15 14 7 10 -12
-6 -13 -5 -4 7 6 8 10 22 9 31 -2 10 2 16 7 15 6 -1 13 4 16 12 3 9 0 11 -9 7
-9 -5 -9 -3 1 6 17 14 19 27 7 46 -5 7 -2 14 7 18 9 3 16 10 16 16 0 5 -4 7
-8 4 -5 -3 -9 1 -9 9 0 8 7 15 14 15 8 0 11 5 8 10 -4 6 -11 8 -16 5 -5 -4 -5
3 0 17 6 15 5 31 -1 42 -7 13 -7 17 0 12 5 -3 13 1 16 10 9 24 7 31 -5 14 -12
-18 -7 82 6 115 l8 20 -17 -20 c-10 -11 -15 -15 -12 -8 9 17 10 178 2 191 -4
7 -4 17 -1 22 3 6 0 10 -7 10 -9 0 -9 3 2 10 10 6 11 10 3 10 -7 0 -13 9 -13
19 0 11 -5 23 -11 26 -5 4 -8 12 -6 18 2 7 -3 18 -12 25 -14 12 -14 13 4 8 17
-5 16 -3 -5 15 -14 11 -18 17 -10 13 13 -7 13 -5 1 9 -7 9 -18 14 -24 10 -6
-3 -7 -1 -3 5 4 7 2 12 -3 12 -6 0 -11 8 -11 18 0 11 -10 27 -23 38 l-22 19
19 -25 c11 -14 1 -6 -21 17 -23 23 -44 39 -47 36 -3 -4 -6 -2 -6 4 0 6 -7 14
-16 17 -10 4 -13 2 -8 -7 5 -8 2 -7 -9 2 -9 7 -17 10 -17 5 -1 -5 -10 2 -20
15 -12 14 -20 18 -20 10 0 -11 -2 -11 -8 -1 -5 8 -16 10 -27 6 -13 -5 -16 -4
-11 4 5 8 2 10 -8 6 -10 -4 -16 -1 -16 7 0 11 -3 11 -10 -1 -9 -13 -10 -13
-10 0 0 13 -1 13 -10 0 -9 -13 -10 -13 -10 0 0 13 -1 13 -10 0 -9 -13 -10 -13
-10 0 0 13 -1 13 -10 0 -6 -10 -10 -11 -10 -2 0 6 -5 12 -11 12 -5 0 -8 -3 -5
-8 2 -4 -13 -7 -34 -7 -21 0 -36 4 -33 9 4 5 0 6 -8 0 -20 -12 -40 -14 -33 -3
3 5 0 9 -5 9 -6 0 -11 -6 -11 -12 0 -9 -4 -8 -10 2 -5 8 -10 11 -10 6 0 -5 -7
-3 -15 4 -13 11 -14 10 -8 -6 6 -17 5 -18 -12 -4 -11 9 -16 10 -11 3 4 -7 3
-13 -3 -13 -5 0 -12 6 -14 13 -4 8 -6 8 -6 -2 -1 -11 -5 -10 -17 5 -8 10 -13
14 -10 8z m180 -147 c-5 -13 40 -17 52 -4 4 3 16 1 27 -5 17 -9 19 -8 13 8 -6
16 -5 16 15 -2 12 -10 19 -13 15 -6 -4 6 -3 12 3 12 5 0 11 -6 14 -12 3 -10
10 -10 28 1 13 7 21 10 17 6 -9 -10 17 -35 36 -35 9 0 16 -4 16 -10 0 -5 3 -9
8 -8 17 5 72 -58 72 -82 0 -20 2 -22 10 -10 8 12 10 11 11 -7 1 -13 2 -29 3
-35 1 -7 8 -16 16 -20 12 -5 12 -7 -2 -7 -10 -1 -18 -6 -18 -11 0 -6 3 -9 8
-9 19 3 25 -2 12 -11 -13 -9 -13 -10 1 -10 11 0 15 -9 13 -32 -1 -18 -5 -40
-9 -49 -3 -10 -2 -20 4 -24 6 -3 11 -14 11 -23 0 -15 -2 -15 -10 -2 -8 13 -10
12 -10 -2 0 -10 5 -18 11 -18 8 0 8 -5 -1 -15 -10 -12 -10 -15 1 -15 10 0 10
-3 1 -12 -17 -17 -15 -28 5 -28 15 0 15 -2 -2 -14 -17 -12 -18 -16 -5 -32 8
-10 10 -15 5 -12 -6 4 -10 -8 -11 -28 -1 -28 2 -34 15 -29 11 3 10 0 -3 -10
-14 -11 -16 -15 -5 -15 12 0 12 -2 -1 -10 -8 -5 -10 -10 -4 -10 7 0 11 -11 10
-24 -1 -20 -4 -22 -15 -13 -12 9 -13 9 -7 0 4 -7 2 -21 -3 -31 -7 -13 -6 -23
2 -32 9 -10 9 -14 -1 -17 -6 -3 -12 -14 -12 -24 0 -13 -4 -18 -12 -13 -7 4
-10 4 -6 0 9 -10 -12 -67 -22 -61 -5 3 -11 -4 -15 -15 -4 -11 -11 -18 -16 -15
-5 4 -9 -1 -9 -9 0 -9 -6 -15 -12 -13 -7 1 -12 -3 -11 -10 2 -7 -3 -10 -11 -7
-8 3 -17 0 -21 -6 -5 -8 -11 -8 -21 1 -12 10 -13 9 -8 -5 5 -12 2 -15 -10 -10
-10 4 -16 1 -16 -7 0 -11 -2 -11 -10 1 -7 12 -12 12 -22 2 -16 -16 -31 -16
-22 1 5 8 2 8 -9 -2 -14 -11 -20 -11 -34 0 -9 8 -14 9 -10 3 4 -7 0 -14 -8
-18 -8 -3 -17 -1 -20 3 -3 5 -15 7 -27 3 -16 -4 -19 -2 -13 9 7 11 6 12 -6 3
-11 -9 -17 -9 -27 2 -10 11 -10 14 0 14 9 0 9 3 -2 10 -13 9 -13 10 0 10 13 0
13 1 0 10 -8 5 -10 10 -4 10 6 0 8 19 4 55 -3 30 -2 55 2 55 5 0 4 9 -2 20 -8
14 -8 20 0 20 8 0 8 6 0 20 -8 14 -8 20 0 20 8 0 8 6 0 20 -6 12 -7 20 -1 20
6 0 6 11 1 30 -5 18 -5 30 1 30 5 0 9 5 9 11 0 5 -3 8 -7 6 -5 -3 -8 19 -8 49
0 30 3 54 8 54 4 0 7 5 7 11 0 5 -3 8 -7 6 -5 -3 -8 19 -8 49 0 30 3 54 7 54
4 0 3 14 -2 30 -5 19 -5 30 1 30 6 0 5 8 -1 20 -8 14 -8 20 0 20 8 0 8 6 0 20
-8 14 -8 20 0 20 8 0 8 6 0 20 -6 11 -7 20 -2 20 5 0 6 23 2 50 -4 28 -4 50 0
50 3 0 4 15 2 34 -2 20 1 37 9 41 8 6 10 4 4 -6 -8 -12 -6 -12 8 0 9 7 17 10
17 5 0 -4 5 -3 12 4 15 15 19 15 12 -1z m357 -720 c-10 -9 -11 -8 -5 6 3 10 9
15 12 12 3 -3 0 -11 -7 -18z"/>
<path d="M506 1888 c3 -5 10 -6 15 -3 13 9 11 12 -6 12 -8 0 -12 -4 -9 -9z"/>
<path d="M2586 1853 c-6 -14 -5 -15 5 -6 7 7 10 15 7 18 -3 3 -9 -2 -12 -12z"/>
<path d="M1096 1623 c-4 -4 -17 -9 -29 -11 -12 -2 -28 -5 -35 -6 -7 -1 -20
-13 -29 -26 -9 -13 -11 -20 -5 -16 7 4 12 2 12 -3 0 -6 -4 -11 -10 -11 -6 0
-6 -9 0 -26 8 -19 7 -31 -2 -42 -11 -13 -11 -15 2 -8 8 4 6 0 -5 -10 -15 -13
-16 -15 -3 -11 9 3 19 0 22 -9 3 -9 1 -12 -4 -9 -6 3 -10 1 -10 -5 0 -6 -5 -8
-12 -4 -7 4 -8 3 -4 -5 4 -6 10 -9 14 -7 4 2 7 -9 7 -24 1 -16 -3 -26 -8 -23
-5 3 -7 0 -5 -8 3 -8 12 -13 19 -11 8 1 5 -4 -5 -13 -14 -11 -16 -15 -5 -15
12 0 12 -2 -1 -10 -12 -8 -12 -10 -1 -10 11 0 11 -3 1 -15 -9 -10 -9 -15 -1
-15 6 0 11 -5 11 -11 0 -5 -4 -8 -8 -5 -4 2 -8 -4 -8 -15 0 -10 4 -19 8 -19
11 0 6 -23 -7 -32 -7 -5 -7 -8 0 -8 6 0 11 -11 11 -25 1 -14 -2 -22 -8 -19 -6
4 -5 -2 1 -14 9 -17 8 -21 -7 -25 -16 -4 -16 -5 1 -6 20 -1 23 -17 5 -24 -10
-4 -9 -6 1 -6 11 -1 11 -4 1 -16 -9 -10 -9 -15 -1 -15 6 0 11 -5 11 -11 0 -5
-5 -7 -11 -3 -8 5 -8 1 0 -13 7 -14 7 -24 -2 -33 -8 -9 -8 -11 -1 -7 14 8 13
-51 -1 -73 -5 -8 -4 -11 2 -7 13 8 11 -52 -2 -73 -5 -8 -4 -11 2 -7 6 4 10 -7
9 -27 0 -19 -4 -32 -8 -29 -15 8 -8 -9 10 -25 9 -10 13 -14 8 -10 -6 5 -14 8
-20 8 -5 0 -1 -6 9 -14 15 -11 25 -11 39 -4 15 8 21 8 24 0 3 -9 9 -9 24 -1
11 6 18 7 14 1 -6 -10 59 9 71 22 4 4 0 4 -8 1 -9 -3 -16 0 -17 7 -1 7 -3 24
-5 38 -2 14 3 36 11 49 8 13 9 20 3 17 -6 -4 -11 0 -11 9 0 9 4 13 10 10 6 -3
7 1 4 9 -3 9 -9 14 -13 12 -4 -3 -5 10 -3 27 2 18 3 42 3 55 -1 13 3 21 8 18
5 -4 7 3 4 14 -3 11 -10 23 -15 26 -5 3 -1 15 9 27 10 11 13 17 7 14 -7 -4
-15 0 -18 9 -9 23 -7 31 3 16 6 -10 10 -9 14 7 3 14 1 19 -6 14 -6 -4 -8 0 -4
10 3 9 2 19 -4 22 -5 4 -6 11 -3 17 4 6 7 24 6 40 0 15 3 26 8 23 4 -3 6 4 3
16 -4 16 -8 17 -14 7 -5 -8 -7 0 -4 20 2 18 10 41 17 50 10 12 10 14 1 8 -8
-4 -13 -1 -13 9 0 9 4 13 10 10 6 -3 7 1 4 9 -3 9 -9 14 -13 12 -4 -3 -5 10
-3 27 2 18 3 42 3 55 -1 13 4 20 9 17 11 -7 2 23 -12 42 -5 7 -5 14 2 18 6 3
7 12 3 18 -13 20 -12 39 1 34 7 -3 13 1 13 9 0 8 -5 13 -11 12 -18 -2 -46 13
-41 22 7 11 -10 22 -19 13z m7 -18 c-3 -9 -8 -14 -10 -11 -3 3 -2 9 2 15 9 16
15 13 8 -4z"/>
<path d="M2463 1623 c4 -6 0 -16 -7 -22 -11 -9 -16 -9 -22 0 -5 8 -3 9 6 4 9
-5 11 -4 6 4 -6 9 -11 9 -22 0 -12 -10 -12 -14 -2 -20 10 -7 10 -9 1 -9 -7 0
-13 -8 -13 -17 0 -15 2 -16 10 -3 5 8 10 10 10 5 0 -6 -5 -16 -12 -23 -7 -7
-8 -12 -2 -12 5 0 2 -5 -6 -10 -13 -8 -13 -10 2 -10 11 0 15 -6 11 -20 -3 -11
-10 -17 -17 -14 -6 3 -4 0 4 -8 17 -14 20 -32 8 -44 -5 -4 -8 -14 -8 -23 0
-14 2 -14 10 -1 5 8 10 10 10 5 0 -6 -5 -16 -12 -23 -7 -7 -8 -12 -4 -12 5 0
3 -7 -4 -15 -11 -13 -10 -14 3 -9 16 6 18 -11 3 -35 -5 -8 -3 -16 5 -22 10 -6
10 -9 2 -9 -7 0 -10 -7 -6 -17 4 -11 3 -14 -5 -9 -8 5 -10 2 -6 -8 3 -9 11
-13 18 -9 6 4 5 -1 -3 -10 -7 -9 -10 -17 -6 -17 4 0 2 -7 -5 -15 -11 -13 -10
-14 2 -10 9 4 15 0 15 -9 0 -8 -4 -13 -8 -10 -4 2 -10 0 -14 -6 -3 -5 0 -10 7
-10 8 0 14 -9 14 -20 0 -11 -3 -20 -6 -20 -3 0 -6 -9 -7 -20 -1 -13 2 -18 10
-13 7 4 6 0 -2 -10 -7 -9 -10 -17 -6 -17 4 0 2 -7 -5 -15 -11 -13 -10 -14 3
-9 16 6 18 -11 3 -35 -5 -8 -3 -16 5 -22 10 -6 10 -9 2 -9 -7 0 -10 -7 -6 -17
4 -11 3 -14 -5 -9 -8 5 -10 2 -6 -8 3 -9 11 -13 18 -9 6 4 5 -1 -3 -10 -7 -9
-10 -17 -6 -17 4 0 2 -7 -5 -15 -11 -13 -10 -14 2 -10 9 4 15 0 15 -9 0 -8 -4
-13 -8 -10 -4 2 -10 0 -14 -6 -3 -5 0 -10 7 -10 8 0 14 -9 14 -20 0 -11 -3
-20 -6 -20 -3 0 -6 -9 -7 -20 -1 -13 2 -18 10 -14 8 5 8 3 0 -7 -15 -16 -17
-43 -3 -34 6 3 10 2 10 -3 0 -6 7 -13 16 -16 8 -3 12 -2 9 4 -3 6 -2 10 4 10
5 0 12 -6 14 -12 4 -10 6 -10 6 0 1 7 5 10 11 7 19 -11 50 -14 55 -4 4 5 11 6
17 3 7 -4 8 -2 4 4 -4 7 -1 12 6 12 10 0 10 2 -1 9 -11 7 -11 9 0 14 10 4 10
6 2 6 -7 1 -13 6 -13 12 0 5 3 8 8 6 4 -3 5 19 4 48 -2 30 2 63 9 77 11 21 11
22 -5 9 -15 -12 -17 -12 -14 0 2 8 8 17 13 21 6 5 4 8 -5 8 -13 0 -13 1 0 10
10 6 11 10 3 10 -7 0 -13 5 -13 11 0 5 3 8 8 6 4 -3 7 26 7 63 0 37 -3 66 -8
63 -11 -7 -4 21 8 29 6 5 5 8 -2 8 -7 0 -13 5 -13 11 0 5 5 7 12 3 7 -5 8 -3
3 5 -10 16 -12 131 -2 124 4 -2 7 1 7 6 0 6 -6 11 -12 11 -9 0 -8 4 2 10 13 9
13 10 0 10 -13 0 -13 1 0 10 10 6 11 10 3 10 -7 0 -13 5 -13 11 0 5 5 7 12 3
7 -5 8 -3 3 5 -10 16 -12 131 -2 124 4 -2 7 1 7 6 0 6 -6 11 -12 11 -9 0 -8 4
2 10 13 9 13 10 0 10 -12 0 -13 2 -1 9 11 7 11 9 0 14 -11 3 -11 7 -2 17 10
11 9 16 -5 27 -9 8 -12 12 -5 9 7 -4 10 1 9 11 -2 10 -6 16 -11 15 -4 -2 -12
2 -16 10 -7 10 -9 10 -9 0 0 -13 -38 -10 -61 4 -7 4 -9 3 -6 -3z m27 -23 c0
-5 -2 -10 -4 -10 -3 0 -8 5 -11 10 -3 6 -1 10 4 10 6 0 11 -4 11 -10z"/>
<path d="M1130 1611 c0 -5 5 -13 10 -16 6 -3 10 -2 10 4 0 5 -4 13 -10 16 -5
3 -10 2 -10 -4z"/>
<path d="M1155 1281 c-3 -5 -2 -12 3 -15 5 -3 9 1 9 9 0 17 -3 19 -12 6z"/>
<path d="M1155 801 c-3 -5 -2 -12 3 -15 5 -3 9 1 9 9 0 17 -3 19 -12 6z"/>
<path d="M1734 682 c4 -3 14 -7 22 -8 9 -1 13 0 10 4 -4 3 -14 7 -22 8 -9 1
-13 0 -10 -4z"/>
</g>
</svg>
