<svg width="30" height="30" fill="none" xmlns="http://www.w3.org/2000/svg"><path fill-rule="evenodd" clip-rule="evenodd" d="M29.712 14.66c0 7.967-6.545 14.425-14.617 14.425C7.021 29.085.477 22.627.477 14.66.478 6.693 7.022.234 15.095.234c8.072 0 14.617 6.459 14.617 14.426zm-1.17 0c0 7.33-6.02 13.271-13.448 13.271-7.426 0-13.447-5.942-13.447-13.271 0-7.33 6.02-13.272 13.447-13.272 7.428 0 13.448 5.942 13.448 13.272zm-15.786-2.885v.577h1.17v9.232h-1.17v.577h4.678v-.577h-1.17v-9.81h-3.509zm4.093-2.885c0 .956-.786 1.73-1.755 1.73a1.743 1.743 0 01-1.753-1.73c0-.956.785-1.731 1.754-1.731.968 0 1.754.775 1.754 1.73z" fill="#2B4074"/></svg>